<mxfile host="app.diagrams.net" agent="Mozilla/5.0 (Windows NT 10.0; Win64; x64) AppleWebKit/537.36 (KHTML, like Gecko) Chrome/131.0.0.0 Safari/537.36 Edg/131.0.0.0" version="24.8.9">
  <diagram id="C5RBs43oDa-KdzZeNtuy" name="Page-1">
    <mxGraphModel dx="2571" dy="954" grid="1" gridSize="10" guides="1" tooltips="1" connect="1" arrows="1" fold="1" page="1" pageScale="1" pageWidth="827" pageHeight="1169" math="0" shadow="0">
      <root>
        <mxCell id="WIyWlLk6GJQsqaUBKTNV-0" />
        <mxCell id="WIyWlLk6GJQsqaUBKTNV-1" parent="WIyWlLk6GJQsqaUBKTNV-0" />
        <mxCell id="mvioNwK95yMqdUQ73LqQ-36" value="" style="swimlane;fontFamily=Sarabun;fontSource=https%3A%2F%2Ffonts.googleapis.com%2Fcss%3Ffamily%3DSarabun;" parent="WIyWlLk6GJQsqaUBKTNV-1" vertex="1">
          <mxGeometry x="-733" y="20" width="640" height="4800" as="geometry" />
        </mxCell>
        <mxCell id="mvioNwK95yMqdUQ73LqQ-35" value="&lt;font data-font-src=&quot;https://fonts.googleapis.com/css?family=Sarabun&quot; face=&quot;Sarabun&quot;&gt;Start&lt;/font&gt;" style="ellipse;whiteSpace=wrap;html=1;" parent="mvioNwK95yMqdUQ73LqQ-36" vertex="1">
          <mxGeometry x="312" y="40" width="130" height="30" as="geometry" />
        </mxCell>
        <mxCell id="QNhVIbcrn-Icenjs99R--4" style="edgeStyle=orthogonalEdgeStyle;rounded=0;orthogonalLoop=1;jettySize=auto;html=1;entryX=0.473;entryY=0.019;entryDx=0;entryDy=0;entryPerimeter=0;" parent="mvioNwK95yMqdUQ73LqQ-36" source="mvioNwK95yMqdUQ73LqQ-35" edge="1">
          <mxGeometry relative="1" as="geometry">
            <mxPoint x="377.3299999999999" y="111.71000000000004" as="targetPoint" />
          </mxGeometry>
        </mxCell>
        <mxCell id="xWEfh6HMx48RzBGJP8fx-63" style="edgeStyle=orthogonalEdgeStyle;rounded=0;orthogonalLoop=1;jettySize=auto;html=1;entryX=0.5;entryY=0;entryDx=0;entryDy=0;" edge="1" parent="mvioNwK95yMqdUQ73LqQ-36" source="xWEfh6HMx48RzBGJP8fx-0" target="xWEfh6HMx48RzBGJP8fx-1">
          <mxGeometry relative="1" as="geometry" />
        </mxCell>
        <mxCell id="xWEfh6HMx48RzBGJP8fx-0" value="Declare &amp;amp; Init&amp;nbsp;&lt;div&gt;a = 0 is integer&lt;/div&gt;&lt;div&gt;b = 0 as integer&lt;/div&gt;&lt;div&gt;result as integer&amp;nbsp;&lt;/div&gt;" style="rounded=0;whiteSpace=wrap;html=1;" vertex="1" parent="mvioNwK95yMqdUQ73LqQ-36">
          <mxGeometry x="289.5" y="110" width="175" height="60" as="geometry" />
        </mxCell>
        <mxCell id="xWEfh6HMx48RzBGJP8fx-1" value="Display &quot;Please enter value (a,b) : &quot;" style="shape=parallelogram;perimeter=parallelogramPerimeter;whiteSpace=wrap;html=1;fixedSize=1;" vertex="1" parent="mvioNwK95yMqdUQ73LqQ-36">
          <mxGeometry x="240.5" y="210" width="273" height="80" as="geometry" />
        </mxCell>
        <mxCell id="xWEfh6HMx48RzBGJP8fx-2" value="Read a, b" style="shape=parallelogram;perimeter=parallelogramPerimeter;whiteSpace=wrap;html=1;fixedSize=1;" vertex="1" parent="mvioNwK95yMqdUQ73LqQ-36">
          <mxGeometry x="312" y="330" width="120" height="60" as="geometry" />
        </mxCell>
        <mxCell id="xWEfh6HMx48RzBGJP8fx-9" style="edgeStyle=orthogonalEdgeStyle;rounded=0;orthogonalLoop=1;jettySize=auto;html=1;" edge="1" parent="mvioNwK95yMqdUQ73LqQ-36" source="xWEfh6HMx48RzBGJP8fx-4" target="xWEfh6HMx48RzBGJP8fx-6">
          <mxGeometry relative="1" as="geometry" />
        </mxCell>
        <mxCell id="xWEfh6HMx48RzBGJP8fx-4" value="result = a + b" style="rounded=0;whiteSpace=wrap;html=1;" vertex="1" parent="mvioNwK95yMqdUQ73LqQ-36">
          <mxGeometry x="297" y="530" width="120" height="60" as="geometry" />
        </mxCell>
        <mxCell id="xWEfh6HMx48RzBGJP8fx-67" value="" style="edgeStyle=orthogonalEdgeStyle;rounded=0;orthogonalLoop=1;jettySize=auto;html=1;" edge="1" parent="mvioNwK95yMqdUQ73LqQ-36" source="xWEfh6HMx48RzBGJP8fx-5" target="xWEfh6HMx48RzBGJP8fx-4">
          <mxGeometry relative="1" as="geometry" />
        </mxCell>
        <mxCell id="xWEfh6HMx48RzBGJP8fx-5" value="Display a, b" style="shape=parallelogram;perimeter=parallelogramPerimeter;whiteSpace=wrap;html=1;fixedSize=1;" vertex="1" parent="mvioNwK95yMqdUQ73LqQ-36">
          <mxGeometry x="302" y="430" width="120" height="60" as="geometry" />
        </mxCell>
        <mxCell id="xWEfh6HMx48RzBGJP8fx-68" style="edgeStyle=orthogonalEdgeStyle;rounded=0;orthogonalLoop=1;jettySize=auto;html=1;" edge="1" parent="mvioNwK95yMqdUQ73LqQ-36" source="xWEfh6HMx48RzBGJP8fx-6" target="xWEfh6HMx48RzBGJP8fx-7">
          <mxGeometry relative="1" as="geometry" />
        </mxCell>
        <mxCell id="xWEfh6HMx48RzBGJP8fx-6" value="Display&amp;nbsp; result" style="shape=parallelogram;perimeter=parallelogramPerimeter;whiteSpace=wrap;html=1;fixedSize=1;" vertex="1" parent="mvioNwK95yMqdUQ73LqQ-36">
          <mxGeometry x="297" y="610" width="120" height="60" as="geometry" />
        </mxCell>
        <mxCell id="xWEfh6HMx48RzBGJP8fx-7" value="result&amp;nbsp; = a - b" style="rounded=0;whiteSpace=wrap;html=1;" vertex="1" parent="mvioNwK95yMqdUQ73LqQ-36">
          <mxGeometry x="297" y="800" width="120" height="60" as="geometry" />
        </mxCell>
        <mxCell id="xWEfh6HMx48RzBGJP8fx-8" value="Display&amp;nbsp; result" style="shape=parallelogram;perimeter=parallelogramPerimeter;whiteSpace=wrap;html=1;fixedSize=1;" vertex="1" parent="mvioNwK95yMqdUQ73LqQ-36">
          <mxGeometry x="289.5" y="890" width="120" height="60" as="geometry" />
        </mxCell>
        <mxCell id="xWEfh6HMx48RzBGJP8fx-13" style="edgeStyle=orthogonalEdgeStyle;rounded=0;orthogonalLoop=1;jettySize=auto;html=1;entryX=0.56;entryY=-0.006;entryDx=0;entryDy=0;entryPerimeter=0;" edge="1" parent="mvioNwK95yMqdUQ73LqQ-36" source="xWEfh6HMx48RzBGJP8fx-7" target="xWEfh6HMx48RzBGJP8fx-8">
          <mxGeometry relative="1" as="geometry" />
        </mxCell>
        <mxCell id="xWEfh6HMx48RzBGJP8fx-14" value="result&amp;nbsp; = a * b" style="rounded=0;whiteSpace=wrap;html=1;" vertex="1" parent="mvioNwK95yMqdUQ73LqQ-36">
          <mxGeometry x="293.25" y="1030" width="120" height="60" as="geometry" />
        </mxCell>
        <mxCell id="xWEfh6HMx48RzBGJP8fx-71" style="edgeStyle=orthogonalEdgeStyle;rounded=0;orthogonalLoop=1;jettySize=auto;html=1;" edge="1" parent="mvioNwK95yMqdUQ73LqQ-36" source="xWEfh6HMx48RzBGJP8fx-15" target="xWEfh6HMx48RzBGJP8fx-17">
          <mxGeometry relative="1" as="geometry" />
        </mxCell>
        <mxCell id="xWEfh6HMx48RzBGJP8fx-15" value="Display&amp;nbsp; result" style="shape=parallelogram;perimeter=parallelogramPerimeter;whiteSpace=wrap;html=1;fixedSize=1;" vertex="1" parent="mvioNwK95yMqdUQ73LqQ-36">
          <mxGeometry x="285.75" y="1120" width="120" height="60" as="geometry" />
        </mxCell>
        <mxCell id="xWEfh6HMx48RzBGJP8fx-16" style="edgeStyle=orthogonalEdgeStyle;rounded=0;orthogonalLoop=1;jettySize=auto;html=1;entryX=0.56;entryY=-0.006;entryDx=0;entryDy=0;entryPerimeter=0;" edge="1" parent="mvioNwK95yMqdUQ73LqQ-36" source="xWEfh6HMx48RzBGJP8fx-14" target="xWEfh6HMx48RzBGJP8fx-15">
          <mxGeometry relative="1" as="geometry" />
        </mxCell>
        <mxCell id="xWEfh6HMx48RzBGJP8fx-17" value="result&amp;nbsp; = a / b" style="rounded=0;whiteSpace=wrap;html=1;" vertex="1" parent="mvioNwK95yMqdUQ73LqQ-36">
          <mxGeometry x="285.75" y="1260" width="120" height="60" as="geometry" />
        </mxCell>
        <mxCell id="xWEfh6HMx48RzBGJP8fx-72" style="edgeStyle=orthogonalEdgeStyle;rounded=0;orthogonalLoop=1;jettySize=auto;html=1;entryX=0.5;entryY=0;entryDx=0;entryDy=0;" edge="1" parent="mvioNwK95yMqdUQ73LqQ-36" source="xWEfh6HMx48RzBGJP8fx-18" target="xWEfh6HMx48RzBGJP8fx-23">
          <mxGeometry relative="1" as="geometry" />
        </mxCell>
        <mxCell id="xWEfh6HMx48RzBGJP8fx-18" value="Display&amp;nbsp; result" style="shape=parallelogram;perimeter=parallelogramPerimeter;whiteSpace=wrap;html=1;fixedSize=1;" vertex="1" parent="mvioNwK95yMqdUQ73LqQ-36">
          <mxGeometry x="278.25" y="1350" width="120" height="60" as="geometry" />
        </mxCell>
        <mxCell id="xWEfh6HMx48RzBGJP8fx-19" style="edgeStyle=orthogonalEdgeStyle;rounded=0;orthogonalLoop=1;jettySize=auto;html=1;entryX=0.56;entryY=-0.006;entryDx=0;entryDy=0;entryPerimeter=0;" edge="1" parent="mvioNwK95yMqdUQ73LqQ-36" source="xWEfh6HMx48RzBGJP8fx-17" target="xWEfh6HMx48RzBGJP8fx-18">
          <mxGeometry relative="1" as="geometry" />
        </mxCell>
        <mxCell id="xWEfh6HMx48RzBGJP8fx-23" value="result&amp;nbsp; = a %&amp;nbsp;b" style="rounded=0;whiteSpace=wrap;html=1;" vertex="1" parent="mvioNwK95yMqdUQ73LqQ-36">
          <mxGeometry x="278.25" y="1490" width="120" height="60" as="geometry" />
        </mxCell>
        <mxCell id="xWEfh6HMx48RzBGJP8fx-24" value="Display&amp;nbsp; result" style="shape=parallelogram;perimeter=parallelogramPerimeter;whiteSpace=wrap;html=1;fixedSize=1;" vertex="1" parent="mvioNwK95yMqdUQ73LqQ-36">
          <mxGeometry x="270.75" y="1580" width="120" height="60" as="geometry" />
        </mxCell>
        <mxCell id="xWEfh6HMx48RzBGJP8fx-25" style="edgeStyle=orthogonalEdgeStyle;rounded=0;orthogonalLoop=1;jettySize=auto;html=1;entryX=0.56;entryY=-0.006;entryDx=0;entryDy=0;entryPerimeter=0;" edge="1" parent="mvioNwK95yMqdUQ73LqQ-36" source="xWEfh6HMx48RzBGJP8fx-23" target="xWEfh6HMx48RzBGJP8fx-24">
          <mxGeometry relative="1" as="geometry" />
        </mxCell>
        <mxCell id="xWEfh6HMx48RzBGJP8fx-26" value="result&amp;nbsp; = ++a" style="rounded=0;whiteSpace=wrap;html=1;" vertex="1" parent="mvioNwK95yMqdUQ73LqQ-36">
          <mxGeometry x="277" y="1720" width="121.25" height="60" as="geometry" />
        </mxCell>
        <mxCell id="xWEfh6HMx48RzBGJP8fx-27" value="Display&amp;nbsp; result" style="shape=parallelogram;perimeter=parallelogramPerimeter;whiteSpace=wrap;html=1;fixedSize=1;" vertex="1" parent="mvioNwK95yMqdUQ73LqQ-36">
          <mxGeometry x="270.75" y="1810" width="120" height="60" as="geometry" />
        </mxCell>
        <mxCell id="xWEfh6HMx48RzBGJP8fx-28" style="edgeStyle=orthogonalEdgeStyle;rounded=0;orthogonalLoop=1;jettySize=auto;html=1;entryX=0.56;entryY=-0.006;entryDx=0;entryDy=0;entryPerimeter=0;" edge="1" parent="mvioNwK95yMqdUQ73LqQ-36" source="xWEfh6HMx48RzBGJP8fx-26" target="xWEfh6HMx48RzBGJP8fx-27">
          <mxGeometry relative="1" as="geometry" />
        </mxCell>
        <mxCell id="xWEfh6HMx48RzBGJP8fx-29" value="result&amp;nbsp; = a--" style="rounded=0;whiteSpace=wrap;html=1;" vertex="1" parent="mvioNwK95yMqdUQ73LqQ-36">
          <mxGeometry x="262" y="1930" width="121.25" height="60" as="geometry" />
        </mxCell>
        <mxCell id="xWEfh6HMx48RzBGJP8fx-76" style="edgeStyle=orthogonalEdgeStyle;rounded=0;orthogonalLoop=1;jettySize=auto;html=1;" edge="1" parent="mvioNwK95yMqdUQ73LqQ-36" source="xWEfh6HMx48RzBGJP8fx-30">
          <mxGeometry relative="1" as="geometry">
            <mxPoint x="315.75" y="2140" as="targetPoint" />
          </mxGeometry>
        </mxCell>
        <mxCell id="xWEfh6HMx48RzBGJP8fx-30" value="Display&amp;nbsp; result" style="shape=parallelogram;perimeter=parallelogramPerimeter;whiteSpace=wrap;html=1;fixedSize=1;" vertex="1" parent="mvioNwK95yMqdUQ73LqQ-36">
          <mxGeometry x="255.75" y="2020" width="120" height="60" as="geometry" />
        </mxCell>
        <mxCell id="xWEfh6HMx48RzBGJP8fx-31" style="edgeStyle=orthogonalEdgeStyle;rounded=0;orthogonalLoop=1;jettySize=auto;html=1;entryX=0.56;entryY=-0.006;entryDx=0;entryDy=0;entryPerimeter=0;" edge="1" parent="mvioNwK95yMqdUQ73LqQ-36" source="xWEfh6HMx48RzBGJP8fx-29" target="xWEfh6HMx48RzBGJP8fx-30">
          <mxGeometry relative="1" as="geometry" />
        </mxCell>
        <mxCell id="xWEfh6HMx48RzBGJP8fx-32" value="result&amp;nbsp; = a += 1" style="rounded=0;whiteSpace=wrap;html=1;" vertex="1" parent="mvioNwK95yMqdUQ73LqQ-36">
          <mxGeometry x="258.25" y="2140" width="121.25" height="60" as="geometry" />
        </mxCell>
        <mxCell id="xWEfh6HMx48RzBGJP8fx-34" style="edgeStyle=orthogonalEdgeStyle;rounded=0;orthogonalLoop=1;jettySize=auto;html=1;entryX=0.56;entryY=-0.006;entryDx=0;entryDy=0;entryPerimeter=0;" edge="1" parent="mvioNwK95yMqdUQ73LqQ-36" source="xWEfh6HMx48RzBGJP8fx-32" target="xWEfh6HMx48RzBGJP8fx-33">
          <mxGeometry relative="1" as="geometry" />
        </mxCell>
        <mxCell id="xWEfh6HMx48RzBGJP8fx-33" value="Display&amp;nbsp; result" style="shape=parallelogram;perimeter=parallelogramPerimeter;whiteSpace=wrap;html=1;fixedSize=1;" vertex="1" parent="mvioNwK95yMqdUQ73LqQ-36">
          <mxGeometry x="252" y="2230" width="120" height="60" as="geometry" />
        </mxCell>
        <mxCell id="xWEfh6HMx48RzBGJP8fx-35" value="result&amp;nbsp; = a += b" style="rounded=0;whiteSpace=wrap;html=1;" vertex="1" parent="mvioNwK95yMqdUQ73LqQ-36">
          <mxGeometry x="247" y="2340" width="121.25" height="60" as="geometry" />
        </mxCell>
        <mxCell id="xWEfh6HMx48RzBGJP8fx-36" style="edgeStyle=orthogonalEdgeStyle;rounded=0;orthogonalLoop=1;jettySize=auto;html=1;entryX=0.56;entryY=-0.006;entryDx=0;entryDy=0;entryPerimeter=0;" edge="1" parent="mvioNwK95yMqdUQ73LqQ-36" source="xWEfh6HMx48RzBGJP8fx-35" target="xWEfh6HMx48RzBGJP8fx-37">
          <mxGeometry relative="1" as="geometry" />
        </mxCell>
        <mxCell id="xWEfh6HMx48RzBGJP8fx-78" style="edgeStyle=orthogonalEdgeStyle;rounded=0;orthogonalLoop=1;jettySize=auto;html=1;" edge="1" parent="mvioNwK95yMqdUQ73LqQ-36" source="xWEfh6HMx48RzBGJP8fx-37">
          <mxGeometry relative="1" as="geometry">
            <mxPoint x="300.75" y="2530" as="targetPoint" />
          </mxGeometry>
        </mxCell>
        <mxCell id="xWEfh6HMx48RzBGJP8fx-37" value="Display&amp;nbsp; result" style="shape=parallelogram;perimeter=parallelogramPerimeter;whiteSpace=wrap;html=1;fixedSize=1;" vertex="1" parent="mvioNwK95yMqdUQ73LqQ-36">
          <mxGeometry x="240.75" y="2430" width="120" height="60" as="geometry" />
        </mxCell>
        <mxCell id="xWEfh6HMx48RzBGJP8fx-38" value="result&amp;nbsp; = a -= 1" style="rounded=0;whiteSpace=wrap;html=1;" vertex="1" parent="mvioNwK95yMqdUQ73LqQ-36">
          <mxGeometry x="239.5" y="2530" width="121.25" height="60" as="geometry" />
        </mxCell>
        <mxCell id="xWEfh6HMx48RzBGJP8fx-39" style="edgeStyle=orthogonalEdgeStyle;rounded=0;orthogonalLoop=1;jettySize=auto;html=1;entryX=0.56;entryY=-0.006;entryDx=0;entryDy=0;entryPerimeter=0;" edge="1" parent="mvioNwK95yMqdUQ73LqQ-36" source="xWEfh6HMx48RzBGJP8fx-38" target="xWEfh6HMx48RzBGJP8fx-40">
          <mxGeometry relative="1" as="geometry" />
        </mxCell>
        <mxCell id="xWEfh6HMx48RzBGJP8fx-79" style="edgeStyle=orthogonalEdgeStyle;rounded=0;orthogonalLoop=1;jettySize=auto;html=1;entryX=0.5;entryY=0;entryDx=0;entryDy=0;" edge="1" parent="mvioNwK95yMqdUQ73LqQ-36" source="xWEfh6HMx48RzBGJP8fx-40" target="xWEfh6HMx48RzBGJP8fx-41">
          <mxGeometry relative="1" as="geometry" />
        </mxCell>
        <mxCell id="xWEfh6HMx48RzBGJP8fx-40" value="Display&amp;nbsp; result" style="shape=parallelogram;perimeter=parallelogramPerimeter;whiteSpace=wrap;html=1;fixedSize=1;" vertex="1" parent="mvioNwK95yMqdUQ73LqQ-36">
          <mxGeometry x="233.25" y="2620" width="120" height="60" as="geometry" />
        </mxCell>
        <mxCell id="xWEfh6HMx48RzBGJP8fx-41" value="result&amp;nbsp; = a -= b" style="rounded=0;whiteSpace=wrap;html=1;" vertex="1" parent="mvioNwK95yMqdUQ73LqQ-36">
          <mxGeometry x="229.5" y="2720" width="123.75" height="60" as="geometry" />
        </mxCell>
        <mxCell id="xWEfh6HMx48RzBGJP8fx-42" style="edgeStyle=orthogonalEdgeStyle;rounded=0;orthogonalLoop=1;jettySize=auto;html=1;entryX=0.56;entryY=-0.006;entryDx=0;entryDy=0;entryPerimeter=0;" edge="1" parent="mvioNwK95yMqdUQ73LqQ-36" source="xWEfh6HMx48RzBGJP8fx-41" target="xWEfh6HMx48RzBGJP8fx-43">
          <mxGeometry relative="1" as="geometry" />
        </mxCell>
        <mxCell id="xWEfh6HMx48RzBGJP8fx-43" value="Display&amp;nbsp; result" style="shape=parallelogram;perimeter=parallelogramPerimeter;whiteSpace=wrap;html=1;fixedSize=1;" vertex="1" parent="mvioNwK95yMqdUQ73LqQ-36">
          <mxGeometry x="225.75" y="2810" width="120" height="60" as="geometry" />
        </mxCell>
        <mxCell id="xWEfh6HMx48RzBGJP8fx-44" value="result&amp;nbsp; = a *= 1" style="rounded=0;whiteSpace=wrap;html=1;" vertex="1" parent="mvioNwK95yMqdUQ73LqQ-36">
          <mxGeometry x="213.75" y="2920" width="123.75" height="60" as="geometry" />
        </mxCell>
        <mxCell id="xWEfh6HMx48RzBGJP8fx-45" style="edgeStyle=orthogonalEdgeStyle;rounded=0;orthogonalLoop=1;jettySize=auto;html=1;entryX=0.56;entryY=-0.006;entryDx=0;entryDy=0;entryPerimeter=0;" edge="1" parent="mvioNwK95yMqdUQ73LqQ-36" source="xWEfh6HMx48RzBGJP8fx-44" target="xWEfh6HMx48RzBGJP8fx-46">
          <mxGeometry relative="1" as="geometry" />
        </mxCell>
        <mxCell id="xWEfh6HMx48RzBGJP8fx-81" style="edgeStyle=orthogonalEdgeStyle;rounded=0;orthogonalLoop=1;jettySize=auto;html=1;entryX=0.5;entryY=0;entryDx=0;entryDy=0;" edge="1" parent="mvioNwK95yMqdUQ73LqQ-36" source="xWEfh6HMx48RzBGJP8fx-46" target="xWEfh6HMx48RzBGJP8fx-47">
          <mxGeometry relative="1" as="geometry" />
        </mxCell>
        <mxCell id="xWEfh6HMx48RzBGJP8fx-46" value="Display&amp;nbsp; result" style="shape=parallelogram;perimeter=parallelogramPerimeter;whiteSpace=wrap;html=1;fixedSize=1;" vertex="1" parent="mvioNwK95yMqdUQ73LqQ-36">
          <mxGeometry x="210" y="3010" width="120" height="60" as="geometry" />
        </mxCell>
        <mxCell id="xWEfh6HMx48RzBGJP8fx-47" value="result&amp;nbsp; = a *= b" style="rounded=0;whiteSpace=wrap;html=1;" vertex="1" parent="mvioNwK95yMqdUQ73LqQ-36">
          <mxGeometry x="206.25" y="3100" width="123.75" height="60" as="geometry" />
        </mxCell>
        <mxCell id="xWEfh6HMx48RzBGJP8fx-48" style="edgeStyle=orthogonalEdgeStyle;rounded=0;orthogonalLoop=1;jettySize=auto;html=1;entryX=0.56;entryY=-0.006;entryDx=0;entryDy=0;entryPerimeter=0;" edge="1" parent="mvioNwK95yMqdUQ73LqQ-36" source="xWEfh6HMx48RzBGJP8fx-47" target="xWEfh6HMx48RzBGJP8fx-49">
          <mxGeometry relative="1" as="geometry" />
        </mxCell>
        <mxCell id="xWEfh6HMx48RzBGJP8fx-49" value="Display&amp;nbsp; result" style="shape=parallelogram;perimeter=parallelogramPerimeter;whiteSpace=wrap;html=1;fixedSize=1;" vertex="1" parent="mvioNwK95yMqdUQ73LqQ-36">
          <mxGeometry x="202.5" y="3190" width="120" height="60" as="geometry" />
        </mxCell>
        <mxCell id="xWEfh6HMx48RzBGJP8fx-50" value="result&amp;nbsp; = a %= 1" style="rounded=0;whiteSpace=wrap;html=1;" vertex="1" parent="mvioNwK95yMqdUQ73LqQ-36">
          <mxGeometry x="198.75" y="3290" width="123.75" height="60" as="geometry" />
        </mxCell>
        <mxCell id="xWEfh6HMx48RzBGJP8fx-51" style="edgeStyle=orthogonalEdgeStyle;rounded=0;orthogonalLoop=1;jettySize=auto;html=1;entryX=0.56;entryY=-0.006;entryDx=0;entryDy=0;entryPerimeter=0;" edge="1" parent="mvioNwK95yMqdUQ73LqQ-36" source="xWEfh6HMx48RzBGJP8fx-50" target="xWEfh6HMx48RzBGJP8fx-52">
          <mxGeometry relative="1" as="geometry" />
        </mxCell>
        <mxCell id="xWEfh6HMx48RzBGJP8fx-52" value="Display&amp;nbsp; result" style="shape=parallelogram;perimeter=parallelogramPerimeter;whiteSpace=wrap;html=1;fixedSize=1;" vertex="1" parent="mvioNwK95yMqdUQ73LqQ-36">
          <mxGeometry x="195" y="3380" width="120" height="60" as="geometry" />
        </mxCell>
        <mxCell id="xWEfh6HMx48RzBGJP8fx-53" value="result&amp;nbsp; = a %= b" style="rounded=0;whiteSpace=wrap;html=1;" vertex="1" parent="mvioNwK95yMqdUQ73LqQ-36">
          <mxGeometry x="188.25" y="3487" width="123.75" height="60" as="geometry" />
        </mxCell>
        <mxCell id="xWEfh6HMx48RzBGJP8fx-54" style="edgeStyle=orthogonalEdgeStyle;rounded=0;orthogonalLoop=1;jettySize=auto;html=1;entryX=0.56;entryY=-0.006;entryDx=0;entryDy=0;entryPerimeter=0;" edge="1" parent="mvioNwK95yMqdUQ73LqQ-36" source="xWEfh6HMx48RzBGJP8fx-53" target="xWEfh6HMx48RzBGJP8fx-55">
          <mxGeometry relative="1" as="geometry" />
        </mxCell>
        <mxCell id="xWEfh6HMx48RzBGJP8fx-84" style="edgeStyle=orthogonalEdgeStyle;rounded=0;orthogonalLoop=1;jettySize=auto;html=1;entryX=0.5;entryY=0;entryDx=0;entryDy=0;" edge="1" parent="mvioNwK95yMqdUQ73LqQ-36" source="xWEfh6HMx48RzBGJP8fx-55" target="xWEfh6HMx48RzBGJP8fx-56">
          <mxGeometry relative="1" as="geometry" />
        </mxCell>
        <mxCell id="xWEfh6HMx48RzBGJP8fx-55" value="Display&amp;nbsp; result" style="shape=parallelogram;perimeter=parallelogramPerimeter;whiteSpace=wrap;html=1;fixedSize=1;" vertex="1" parent="mvioNwK95yMqdUQ73LqQ-36">
          <mxGeometry x="184.5" y="3577" width="120" height="60" as="geometry" />
        </mxCell>
        <mxCell id="xWEfh6HMx48RzBGJP8fx-56" value="result&amp;nbsp; = a &amp;amp;&amp;amp; b" style="rounded=0;whiteSpace=wrap;html=1;" vertex="1" parent="mvioNwK95yMqdUQ73LqQ-36">
          <mxGeometry x="180.75" y="3670" width="123.75" height="60" as="geometry" />
        </mxCell>
        <mxCell id="xWEfh6HMx48RzBGJP8fx-57" style="edgeStyle=orthogonalEdgeStyle;rounded=0;orthogonalLoop=1;jettySize=auto;html=1;entryX=0.56;entryY=-0.006;entryDx=0;entryDy=0;entryPerimeter=0;" edge="1" parent="mvioNwK95yMqdUQ73LqQ-36" source="xWEfh6HMx48RzBGJP8fx-56" target="xWEfh6HMx48RzBGJP8fx-58">
          <mxGeometry relative="1" as="geometry" />
        </mxCell>
        <mxCell id="xWEfh6HMx48RzBGJP8fx-58" value="Display&amp;nbsp; result" style="shape=parallelogram;perimeter=parallelogramPerimeter;whiteSpace=wrap;html=1;fixedSize=1;" vertex="1" parent="mvioNwK95yMqdUQ73LqQ-36">
          <mxGeometry x="177" y="3760" width="120" height="60" as="geometry" />
        </mxCell>
        <mxCell id="xWEfh6HMx48RzBGJP8fx-59" value="result&amp;nbsp; = a ||&lt;span style=&quot;background-color: initial;&quot;&gt;&amp;nbsp;b&lt;/span&gt;" style="rounded=0;whiteSpace=wrap;html=1;" vertex="1" parent="mvioNwK95yMqdUQ73LqQ-36">
          <mxGeometry x="169.5" y="3860" width="123.75" height="60" as="geometry" />
        </mxCell>
        <mxCell id="xWEfh6HMx48RzBGJP8fx-60" style="edgeStyle=orthogonalEdgeStyle;rounded=0;orthogonalLoop=1;jettySize=auto;html=1;entryX=0.56;entryY=-0.006;entryDx=0;entryDy=0;entryPerimeter=0;" edge="1" parent="mvioNwK95yMqdUQ73LqQ-36" source="xWEfh6HMx48RzBGJP8fx-59" target="xWEfh6HMx48RzBGJP8fx-61">
          <mxGeometry relative="1" as="geometry" />
        </mxCell>
        <mxCell id="xWEfh6HMx48RzBGJP8fx-61" value="Display&amp;nbsp; result" style="shape=parallelogram;perimeter=parallelogramPerimeter;whiteSpace=wrap;html=1;fixedSize=1;" vertex="1" parent="mvioNwK95yMqdUQ73LqQ-36">
          <mxGeometry x="165.75" y="3950" width="120" height="60" as="geometry" />
        </mxCell>
        <mxCell id="xWEfh6HMx48RzBGJP8fx-62" value="&lt;font face=&quot;Sarabun&quot;&gt;End&lt;/font&gt;" style="ellipse;whiteSpace=wrap;html=1;" vertex="1" parent="mvioNwK95yMqdUQ73LqQ-36">
          <mxGeometry x="155.75" y="4042" width="130" height="30" as="geometry" />
        </mxCell>
        <mxCell id="xWEfh6HMx48RzBGJP8fx-64" style="edgeStyle=orthogonalEdgeStyle;rounded=0;orthogonalLoop=1;jettySize=auto;html=1;entryX=0.564;entryY=0.037;entryDx=0;entryDy=0;entryPerimeter=0;" edge="1" parent="mvioNwK95yMqdUQ73LqQ-36" source="xWEfh6HMx48RzBGJP8fx-1" target="xWEfh6HMx48RzBGJP8fx-2">
          <mxGeometry relative="1" as="geometry" />
        </mxCell>
        <mxCell id="xWEfh6HMx48RzBGJP8fx-66" style="edgeStyle=orthogonalEdgeStyle;rounded=0;orthogonalLoop=1;jettySize=auto;html=1;entryX=0.586;entryY=-0.028;entryDx=0;entryDy=0;entryPerimeter=0;" edge="1" parent="mvioNwK95yMqdUQ73LqQ-36" source="xWEfh6HMx48RzBGJP8fx-2" target="xWEfh6HMx48RzBGJP8fx-5">
          <mxGeometry relative="1" as="geometry" />
        </mxCell>
        <mxCell id="xWEfh6HMx48RzBGJP8fx-69" style="edgeStyle=orthogonalEdgeStyle;rounded=0;orthogonalLoop=1;jettySize=auto;html=1;entryX=0.483;entryY=-0.056;entryDx=0;entryDy=0;entryPerimeter=0;" edge="1" parent="mvioNwK95yMqdUQ73LqQ-36" source="xWEfh6HMx48RzBGJP8fx-8" target="xWEfh6HMx48RzBGJP8fx-14">
          <mxGeometry relative="1" as="geometry" />
        </mxCell>
        <mxCell id="xWEfh6HMx48RzBGJP8fx-73" style="edgeStyle=orthogonalEdgeStyle;rounded=0;orthogonalLoop=1;jettySize=auto;html=1;entryX=0.447;entryY=0.065;entryDx=0;entryDy=0;entryPerimeter=0;" edge="1" parent="mvioNwK95yMqdUQ73LqQ-36" source="xWEfh6HMx48RzBGJP8fx-24" target="xWEfh6HMx48RzBGJP8fx-26">
          <mxGeometry relative="1" as="geometry" />
        </mxCell>
        <mxCell id="xWEfh6HMx48RzBGJP8fx-75" style="edgeStyle=orthogonalEdgeStyle;rounded=0;orthogonalLoop=1;jettySize=auto;html=1;entryX=0.566;entryY=0.056;entryDx=0;entryDy=0;entryPerimeter=0;" edge="1" parent="mvioNwK95yMqdUQ73LqQ-36" source="xWEfh6HMx48RzBGJP8fx-27" target="xWEfh6HMx48RzBGJP8fx-29">
          <mxGeometry relative="1" as="geometry" />
        </mxCell>
        <mxCell id="xWEfh6HMx48RzBGJP8fx-77" style="edgeStyle=orthogonalEdgeStyle;rounded=0;orthogonalLoop=1;jettySize=auto;html=1;entryX=0.536;entryY=0.044;entryDx=0;entryDy=0;entryPerimeter=0;" edge="1" parent="mvioNwK95yMqdUQ73LqQ-36" source="xWEfh6HMx48RzBGJP8fx-33" target="xWEfh6HMx48RzBGJP8fx-35">
          <mxGeometry relative="1" as="geometry" />
        </mxCell>
        <mxCell id="xWEfh6HMx48RzBGJP8fx-80" style="edgeStyle=orthogonalEdgeStyle;rounded=0;orthogonalLoop=1;jettySize=auto;html=1;entryX=0.573;entryY=-0.011;entryDx=0;entryDy=0;entryPerimeter=0;" edge="1" parent="mvioNwK95yMqdUQ73LqQ-36" source="xWEfh6HMx48RzBGJP8fx-43" target="xWEfh6HMx48RzBGJP8fx-44">
          <mxGeometry relative="1" as="geometry" />
        </mxCell>
        <mxCell id="xWEfh6HMx48RzBGJP8fx-82" style="edgeStyle=orthogonalEdgeStyle;rounded=0;orthogonalLoop=1;jettySize=auto;html=1;entryX=0.538;entryY=-0.011;entryDx=0;entryDy=0;entryPerimeter=0;" edge="1" parent="mvioNwK95yMqdUQ73LqQ-36" source="xWEfh6HMx48RzBGJP8fx-49" target="xWEfh6HMx48RzBGJP8fx-50">
          <mxGeometry relative="1" as="geometry" />
        </mxCell>
        <mxCell id="xWEfh6HMx48RzBGJP8fx-83" style="edgeStyle=orthogonalEdgeStyle;rounded=0;orthogonalLoop=1;jettySize=auto;html=1;entryX=0.547;entryY=0.006;entryDx=0;entryDy=0;entryPerimeter=0;" edge="1" parent="mvioNwK95yMqdUQ73LqQ-36" source="xWEfh6HMx48RzBGJP8fx-52" target="xWEfh6HMx48RzBGJP8fx-53">
          <mxGeometry relative="1" as="geometry" />
        </mxCell>
        <mxCell id="xWEfh6HMx48RzBGJP8fx-85" style="edgeStyle=orthogonalEdgeStyle;rounded=0;orthogonalLoop=1;jettySize=auto;html=1;entryX=0.543;entryY=0.011;entryDx=0;entryDy=0;entryPerimeter=0;" edge="1" parent="mvioNwK95yMqdUQ73LqQ-36" source="xWEfh6HMx48RzBGJP8fx-58" target="xWEfh6HMx48RzBGJP8fx-59">
          <mxGeometry relative="1" as="geometry" />
        </mxCell>
        <mxCell id="xWEfh6HMx48RzBGJP8fx-86" style="edgeStyle=orthogonalEdgeStyle;rounded=0;orthogonalLoop=1;jettySize=auto;html=1;entryX=0.536;entryY=0.047;entryDx=0;entryDy=0;entryPerimeter=0;" edge="1" parent="mvioNwK95yMqdUQ73LqQ-36" source="xWEfh6HMx48RzBGJP8fx-61" target="xWEfh6HMx48RzBGJP8fx-62">
          <mxGeometry relative="1" as="geometry" />
        </mxCell>
      </root>
    </mxGraphModel>
  </diagram>
</mxfile>
